<svg width="140" height="29" viewBox="0 0 140 29" fill="none" xmlns="http://www.w3.org/2000/svg">
    <path d="M1.81412 24L9.59012 7.2H12.8061L20.5341 24H17.2221L12.3261 13.416C12.1981 13.128 12.0621 12.816 11.9181 12.48C11.7741 12.144 11.6301 11.808 11.4861 11.472C11.3581 11.136 11.2301 10.8 11.1021 10.464C10.9741 10.112 10.8621 9.776 10.7661 9.456L11.5101 9.432C11.3981 9.784 11.2781 10.136 11.1501 10.488C11.0221 10.84 10.8861 11.184 10.7421 11.52C10.5981 11.856 10.4541 12.192 10.3101 12.528C10.1661 12.848 10.0221 13.168 9.87812 13.488L5.00612 24H1.81412ZM5.29412 20.328L6.42212 17.616H15.7581L16.4061 20.328H5.29412ZM23.371 24V7.2H32.467C33.571 7.2 34.547 7.432 35.395 7.896C36.243 8.344 36.915 8.968 37.411 9.768C37.923 10.552 38.179 11.448 38.179 12.456C38.179 13.48 37.907 14.408 37.363 15.24C36.835 16.056 36.123 16.712 35.227 17.208C34.331 17.688 33.339 17.928 32.251 17.928H26.419V24H23.371ZM35.299 24L29.995 16.416L33.283 15.816L39.067 24.024L35.299 24ZM26.419 15.216H32.035C32.563 15.216 33.051 15.096 33.499 14.856C33.947 14.616 34.299 14.296 34.555 13.896C34.811 13.48 34.939 13.024 34.939 12.528C34.939 12.048 34.803 11.624 34.531 11.256C34.259 10.872 33.883 10.568 33.403 10.344C32.939 10.12 32.427 10.008 31.867 10.008H26.419V15.216ZM51.2119 24.24C49.8679 24.24 48.6199 24.04 47.4679 23.64C46.3159 23.224 45.3079 22.632 44.4439 21.864C43.5959 21.08 42.9319 20.16 42.4519 19.104C41.9719 18.032 41.7319 16.856 41.7319 15.576C41.7319 14.344 41.9799 13.208 42.4759 12.168C42.9719 11.112 43.6519 10.2 44.5159 9.432C45.3959 8.648 46.4119 8.048 47.5639 7.632C48.7159 7.2 49.9479 6.984 51.2599 6.984C52.2679 6.984 53.2279 7.112 54.1399 7.368C55.0679 7.624 55.9159 7.96 56.6839 8.376C57.4519 8.792 58.0839 9.248 58.5799 9.744L56.7079 12.216C56.2119 11.768 55.6759 11.376 55.0999 11.04C54.5399 10.704 53.9239 10.448 53.2519 10.272C52.5799 10.08 51.8519 9.984 51.0679 9.984C50.2679 9.984 49.4999 10.112 48.7639 10.368C48.0439 10.624 47.3879 11 46.7959 11.496C46.2199 11.976 45.7639 12.568 45.4279 13.272C45.0919 13.96 44.9239 14.736 44.9239 15.6C44.9239 16.512 45.0919 17.32 45.4279 18.024C45.7799 18.728 46.2599 19.32 46.8679 19.8C47.4919 20.28 48.1959 20.648 48.9799 20.904C49.7799 21.16 50.6119 21.288 51.4759 21.288C52.3079 21.288 53.0599 21.184 53.7319 20.976C54.4039 20.752 55.0039 20.472 55.5319 20.136C56.0599 19.8 56.5399 19.464 56.9719 19.128L58.4599 21.624C58.0279 22.008 57.4359 22.408 56.6839 22.824C55.9479 23.224 55.1079 23.56 54.1639 23.832C53.2199 24.104 52.2359 24.24 51.2119 24.24ZM75.3647 24V7.2H78.4847V24H75.3647ZM62.1647 24V7.2H65.2847V24H62.1647ZM63.4607 17.16L63.4847 14.232H76.8767V17.16H63.4607ZM83.5304 24V7.2H92.6744C93.6824 7.2 94.6024 7.432 95.4344 7.896C96.2824 8.36 96.9544 8.992 97.4504 9.792C97.9464 10.592 98.1944 11.488 98.1944 12.48C98.1944 13.52 97.9224 14.464 97.3784 15.312C96.8504 16.144 96.1464 16.808 95.2664 17.304C94.3864 17.784 93.4024 18.024 92.3144 18.024H86.6504V24H83.5304ZM86.6504 15.144H91.9784C92.5064 15.144 92.9944 15.024 93.4424 14.784C93.8904 14.544 94.2424 14.224 94.4984 13.824C94.7704 13.424 94.9064 12.984 94.9064 12.504C94.9064 12.04 94.7704 11.632 94.4984 11.28C94.2424 10.912 93.8904 10.624 93.4424 10.416C92.9944 10.192 92.5064 10.08 91.9784 10.08H86.6504V15.144ZM98.3766 24L106.153 7.2H109.369L117.097 24H113.785L108.889 13.416C108.761 13.128 108.625 12.816 108.481 12.48C108.337 12.144 108.193 11.808 108.049 11.472C107.921 11.136 107.793 10.8 107.665 10.464C107.537 10.112 107.425 9.776 107.329 9.456L108.073 9.432C107.961 9.784 107.841 10.136 107.713 10.488C107.585 10.84 107.449 11.184 107.305 11.52C107.161 11.856 107.017 12.192 106.873 12.528C106.729 12.848 106.585 13.168 106.441 13.488L101.569 24H98.3766ZM101.857 20.328L102.985 17.616H112.321L112.969 20.328H101.857ZM119.933 24V7.2H128.069C129.525 7.2 130.821 7.416 131.957 7.848C133.109 8.28 134.077 8.88 134.861 9.648C135.645 10.416 136.237 11.312 136.637 12.336C137.037 13.344 137.237 14.432 137.237 15.6C137.237 16.784 137.037 17.88 136.637 18.888C136.237 19.896 135.637 20.784 134.837 21.552C134.053 22.32 133.093 22.92 131.957 23.352C130.821 23.784 129.525 24 128.069 24H119.933ZM123.053 21.576L122.813 21.12H127.949C128.989 21.12 129.885 20.976 130.637 20.688C131.389 20.4 132.013 20.008 132.509 19.512C133.005 19.016 133.373 18.44 133.613 17.784C133.853 17.112 133.973 16.384 133.973 15.6C133.973 14.832 133.853 14.12 133.613 13.464C133.373 12.792 133.005 12.208 132.509 11.712C132.013 11.2 131.389 10.8 130.637 10.512C129.885 10.224 128.989 10.08 127.949 10.08H122.741L123.053 9.672V21.576Z" fill="#5EA500"/>
</svg>
