<svg width="24" height="24" viewBox="0 0 24 24" fill="none" xmlns="http://www.w3.org/2000/svg">
<mask id="path-1-inside-1_10_307" fill="white">
<path d="M17.2383 5L17.4834 5.00977C19.9993 5.21084 22 8.48744 22 12.5C22 16.5126 19.9993 19.7892 17.4834 19.9902L17.2383 20H2L5 12.5L2 5H17.2383Z"/>
</mask>
<path d="M17.2383 5L17.4834 5.00977C19.9993 5.21084 22 8.48744 22 12.5C22 16.5126 19.9993 19.7892 17.4834 19.9902L17.2383 20H2L5 12.5L2 5H17.2383Z" fill="#D9D9D9" fill-opacity="0.02"/>
<path d="M17.2383 5L17.2781 4.00079L17.2582 4H17.2383V5ZM17.4834 5.00977L17.5631 4.01294L17.5432 4.01135L17.5232 4.01056L17.4834 5.00977ZM17.4834 19.9902L17.5232 20.9894L17.5432 20.9886L17.5631 20.9871L17.4834 19.9902ZM17.2383 20V21H17.2582L17.2781 20.9992L17.2383 20ZM2 20L1.07152 19.6286L0.522967 21H2V20ZM5 12.5L5.92848 12.8714L6.07703 12.5L5.92848 12.1286L5 12.5ZM2 5V4H0.522967L1.07152 5.37139L2 5ZM17.2383 5L17.1985 5.99921L17.4436 6.00897L17.4834 5.00977L17.5232 4.01056L17.2781 4.00079L17.2383 5ZM17.4834 5.00977L17.4037 6.00659C18.2298 6.07261 19.1138 6.66076 19.8297 7.84341C20.5371 9.01207 21 10.6501 21 12.5H22H23C23 10.3374 22.4626 8.33079 21.5407 6.80774C20.6272 5.29868 19.2529 4.148 17.5631 4.01294L17.4834 5.00977ZM22 12.5H21C21 14.3499 20.5371 15.9879 19.8297 17.1566C19.1138 18.3392 18.2298 18.9274 17.4037 18.9934L17.4834 19.9902L17.5631 20.9871C19.2529 20.852 20.6272 19.7013 21.5407 18.1923C22.4626 16.6692 23 14.6626 23 12.5H22ZM17.4834 19.9902L17.4436 18.991L17.1985 19.0008L17.2383 20L17.2781 20.9992L17.5232 20.9894L17.4834 19.9902ZM17.2383 20V19H2V20V21H17.2383V20ZM2 20L2.92848 20.3714L5.92848 12.8714L5 12.5L4.07152 12.1286L1.07152 19.6286L2 20ZM5 12.5L5.92848 12.1286L2.92848 4.62861L2 5L1.07152 5.37139L4.07152 12.8714L5 12.5ZM2 5V6H17.2383V5V4H2V5Z" fill="black" mask="url(#path-1-inside-1_10_307)"/>
</svg>
