<svg width="24" height="24" viewBox="0 0 24 24" fill="none" xmlns="http://www.w3.org/2000/svg">
<mask id="path-1-inside-1_10_71" fill="white">
<path d="M17 4C19.7614 4 22 7.35786 22 11.5C22 15.6421 19.7614 19 17 19H7C4.23858 19 2 15.6421 2 11.5C2 7.35786 4.23858 4 7 4H17Z"/>
</mask>
<path d="M17 4V5C17.9423 5 18.9179 5.57295 19.7035 6.7514C20.4845 7.92286 21 9.59882 21 11.5H22H23C23 9.25904 22.3963 7.18501 21.3676 5.642C20.3436 4.10598 18.8191 3 17 3V4ZM22 11.5H21C21 13.4012 20.4845 15.0771 19.7035 16.2486C18.9179 17.4271 17.9423 18 17 18V19V20C18.8191 20 20.3436 18.894 21.3676 17.358C22.3963 15.815 23 13.741 23 11.5H22ZM17 19V18H7V19V20H17V19ZM7 19V18C6.05767 18 5.08215 17.4271 4.29652 16.2486C3.51554 15.0771 3 13.4012 3 11.5H2H1C1 13.741 1.60374 15.815 2.63242 17.358C3.65643 18.894 5.18091 20 7 20V19ZM2 11.5H3C3 9.59882 3.51554 7.92286 4.29652 6.7514C5.08215 5.57295 6.05767 5 7 5V4V3C5.18091 3 3.65643 4.10598 2.63242 5.642C1.60374 7.18501 1 9.25904 1 11.5H2ZM7 4V5H17V4V3H7V4Z" fill="black" mask="url(#path-1-inside-1_10_71)"/>
</svg>
