<svg width="24" height="24" viewBox="0 0 24 24" fill="none" xmlns="http://www.w3.org/2000/svg">
<path d="M2 11H1V13H2V12V11ZM11.7071 12.7071C12.0976 12.3166 12.0976 11.6834 11.7071 11.2929L5.34315 4.92893C4.95262 4.53841 4.31946 4.53841 3.92893 4.92893C3.53841 5.31946 3.53841 5.95262 3.92893 6.34315L9.58579 12L3.92893 17.6569C3.53841 18.0474 3.53841 18.6805 3.92893 19.0711C4.31946 19.4616 4.95262 19.4616 5.34315 19.0711L11.7071 12.7071ZM2 12V13H11V12V11H2V12Z" fill="black"/>
<rect x="13" y="3" width="8" height="18" rx="1" stroke="black" stroke-width="2"/>
</svg>
