<svg width="24" height="24" viewBox="0 0 24 24" fill="none" xmlns="http://www.w3.org/2000/svg">
<mask id="path-1-inside-1_9_244" fill="white">
<path d="M22 11V21L12 11L2 21V11L12 2L22 11Z"/>
</mask>
<path d="M22 11H23V10.5546L22.669 10.2567L22 11ZM22 21L21.2929 21.7071L23 23.4142V21H22ZM12 11L12.7071 10.2929L12 9.58579L11.2929 10.2929L12 11ZM2 21H1V23.4142L2.70711 21.7071L2 21ZM2 11L1.33104 10.2567L1 10.5546V11H2ZM12 2L12.669 1.25671L12 0.654638L11.331 1.25671L12 2ZM22 11H21V21H22H23V11H22ZM22 21L22.7071 20.2929L12.7071 10.2929L12 11L11.2929 11.7071L21.2929 21.7071L22 21ZM12 11L11.2929 10.2929L1.29289 20.2929L2 21L2.70711 21.7071L12.7071 11.7071L12 11ZM2 21H3V11H2H1V21H2ZM2 11L2.66896 11.7433L12.669 2.74329L12 2L11.331 1.25671L1.33104 10.2567L2 11ZM12 2L11.331 2.74329L21.331 11.7433L22 11L22.669 10.2567L12.669 1.25671L12 2Z" fill="black" mask="url(#path-1-inside-1_9_244)"/>
</svg>
